<svg id="Group_356" data-name="Group 356" xmlns="http://www.w3.org/2000/svg" xmlns:xlink="http://www.w3.org/1999/xlink" width="289.529" height="286.643" viewBox="0 0 289.529 286.643">
  <defs>
    <clipPath id="clip-path">
      <rect id="Rectangle_170" data-name="Rectangle 170" width="289.529" height="286.643" fill="none"/>
    </clipPath>
    <clipPath id="clip-path-4">
      <rect id="Rectangle_163" data-name="Rectangle 163" width="23.414" height="6.639" fill="none"/>
    </clipPath>
    <clipPath id="clip-path-5">
      <rect id="Rectangle_164" data-name="Rectangle 164" width="22.532" height="8.277" fill="none"/>
    </clipPath>
    <clipPath id="clip-path-9">
      <rect id="Rectangle_168" data-name="Rectangle 168" width="17.195" height="14.094" fill="none"/>
    </clipPath>
  </defs>
  <g id="Group_355" data-name="Group 355" clip-path="url(#clip-path)">
    <g id="Group_337" data-name="Group 337">
      <g id="Group_336" data-name="Group 336" clip-path="url(#clip-path)">
        <path id="Path_346" data-name="Path 346" d="M70.826,167.885s-6.835,77.695-4.373,123.047c2.135,39.336,5.893,52.583,5.893,52.583l22.389-.027Z" transform="translate(-22.391 -57.028)" fill="#e0e0e0"/>
      </g>
    </g>
    <g id="Group_345" data-name="Group 345">
      <g id="Group_344" data-name="Group 344" clip-path="url(#clip-path)">
        <path id="Path_347" data-name="Path 347" d="M184.08,14.739a3.409,3.409,0,0,0,1.677-5.788,2.477,2.477,0,0,0,1.014-3.233,2.477,2.477,0,0,0-3.244-.979A2.772,2.772,0,0,0,179.243,2.1a3.292,3.292,0,0,0-5.376,1.939,2.747,2.747,0,0,0-5.148,1.025c-1.1-.319-2.408-.6-3.294.125-.832.681-.876,1.914-.852,2.989a17.372,17.372,0,0,0,.365,3.794,8.764,8.764,0,0,0,3.184,4.834,5.127,5.127,0,0,0,6.038,1" transform="translate(-55.901 -0.451)" fill="#263238"/>
        <path id="Path_348" data-name="Path 348" d="M188.251,25.524a3.034,3.034,0,1,0-3.883-4.645c-.333.318-.649.74-1.109.771-.438.029-.8-.313-1.163-.559a3,3,0,0,0-4.654,2.851c-1.524-.653-3.638-.466-4.406,1a3.026,3.026,0,0,0,1.375,3.767,6.581,6.581,0,0,0,4.3.542,17.168,17.168,0,0,0,9.327-4.539" transform="translate(-58.692 -6.826)" fill="#e8505b"/>
        <path id="Path_349" data-name="Path 349" d="M181.2,27.546c-.039.083-.54-.11-.907-.631s-.385-1.056-.294-1.064.252.418.574.866.676.745.626.83" transform="translate(-61.126 -8.781)" fill="#fff"/>
        <path id="Path_350" data-name="Path 350" d="M189.6,26.212c-.1-.015-.037-.756-.271-1.616s-.642-1.477-.563-1.539a2.23,2.23,0,0,1,.895,1.451,2.233,2.233,0,0,1-.061,1.7" transform="translate(-64.118 -7.831)" fill="#fff"/>
        <path id="Path_351" data-name="Path 351" d="M194.131,25.108c-.1-.03.1-.763-.074-1.646-.154-.886-.6-1.5-.515-1.564a2.056,2.056,0,0,1,.853,1.5,2.058,2.058,0,0,1-.264,1.708" transform="translate(-65.74 -7.437)" fill="#fff"/>
        <path id="Path_352" data-name="Path 352" d="M177.481,29.74c-.011.042-.238.038-.573-.1a2.526,2.526,0,0,1-1.513-2.238c-.005-.363.077-.576.12-.57a5.579,5.579,0,0,0,.6,1.715c.561.837,1.406,1.1,1.369,1.194" transform="translate(-59.579 -9.114)" fill="#fff"/>
        <path id="Path_353" data-name="Path 353" d="M202.859,61.7a4.8,4.8,0,0,0,3.208-5.525,5.771,5.771,0,0,0,1.226-8.313,4.063,4.063,0,0,0-2.411-7.141,5.494,5.494,0,0,0-6.027-7.384,5.029,5.029,0,0,0-7.8-4.94,7.248,7.248,0,0,0-10.831-.388,6.8,6.8,0,0,0-9.328,2.86c-2.047-1.908-5.621-1.225-7.481.865s-2.3,5.107-2.079,7.9a4.623,4.623,0,0,0-.683,8.021A7.951,7.951,0,0,0,162.1,58.621a9.15,9.15,0,0,0,4.5,9.119" transform="translate(-53.887 -8.752)" fill="#263238"/>
        <path id="Path_354" data-name="Path 354" d="M174.465,52.3,173.3,48.968l20.652-3.3c6.352-.483,13.012,6.066,13.225,12.432.237,7.074.247,15.719-.745,20.962C204.439,89.6,196.28,90.713,196.28,90.713l-.637,16.635-23.343-.933Z" transform="translate(-58.528 -15.504)" fill="#ffbe9d"/>
        <path id="Path_355" data-name="Path 355" d="M217.9,74.419a1.359,1.359,0,0,1-1.35,1.332,1.3,1.3,0,0,1-1.364-1.266,1.36,1.36,0,0,1,1.348-1.333,1.3,1.3,0,0,1,1.366,1.267" transform="translate(-73.097 -24.848)" fill="#263238"/>
        <path id="Path_356" data-name="Path 356" d="M218.766,70.445c-.174.172-1.181-.62-2.643-.659-1.459-.06-2.554.66-2.708.477-.075-.082.106-.4.582-.723a3.731,3.731,0,0,1,2.174-.6,3.58,3.58,0,0,1,2.1.745c.44.358.583.683.5.76" transform="translate(-72.488 -23.417)" fill="#263238"/>
        <path id="Path_357" data-name="Path 357" d="M196.043,73.253a1.359,1.359,0,0,1-1.35,1.332,1.3,1.3,0,0,1-1.364-1.266,1.36,1.36,0,0,1,1.349-1.333,1.3,1.3,0,0,1,1.366,1.267" transform="translate(-65.671 -24.452)" fill="#263238"/>
        <path id="Path_358" data-name="Path 358" d="M196.5,70.17c-.174.172-1.182-.619-2.643-.659-1.46-.06-2.555.66-2.709.477-.075-.082.1-.4.583-.723a3.728,3.728,0,0,1,2.174-.6,3.582,3.582,0,0,1,2.1.745c.438.358.582.683.5.76" transform="translate(-64.925 -23.324)" fill="#263238"/>
        <path id="Path_359" data-name="Path 359" d="M207.135,81.372a9.7,9.7,0,0,1,2.387-.359c.374-.027.73-.091.8-.344a1.9,1.9,0,0,0-.217-1.114q-.486-1.371-1.02-2.875c-1.414-4.092-2.425-7.453-2.26-7.508s1.445,3.217,2.859,7.309c.339,1.009.664,1.97.973,2.891a2.159,2.159,0,0,1,.151,1.471.938.938,0,0,1-.63.528,2.578,2.578,0,0,1-.637.069,9.53,9.53,0,0,1-2.407-.068" transform="translate(-70.249 -23.496)" fill="#263238"/>
        <path id="Path_360" data-name="Path 360" d="M201.18,111.763a28.061,28.061,0,0,1-14.436-4.235s3.36,7.522,14.352,6.876Z" transform="translate(-63.434 -36.526)" fill="#eb996e"/>
        <path id="Path_361" data-name="Path 361" d="M195.153,58.956c-.079.415-1.55.463-3.211.942-1.67.446-2.956,1.163-3.238.847-.127-.152.051-.559.541-1.029a3.421,3.421,0,0,1,2.3-1.249,5.558,5.558,0,0,1,2.614-.114c.662.149,1.025.407.994.6" transform="translate(-64.087 -19.786)" fill="#263238"/>
        <path id="Path_362" data-name="Path 362" d="M218.926,63.364c-.283.311-1.26-.111-2.467-.221-1.2-.153-2.248.049-2.456-.316-.09-.176.1-.5.568-.774a3.586,3.586,0,0,1,3.967.432c.4.373.514.725.388.878" transform="translate(-72.686 -20.94)" fill="#263238"/>
        <path id="Path_363" data-name="Path 363" d="M191.578,42.163a5.219,5.219,0,0,0,1.241,2.285,1.793,1.793,0,0,0,2.378.143,2.359,2.359,0,0,0,3.652-.255,3.213,3.213,0,0,0,3.877.384l3.159.689c1.144.25,2.567.4,3.269-.534.163-.217.283-.491.529-.6a1.481,1.481,0,0,1,.81.01,2.726,2.726,0,0,0,2.369-1.117,8.048,8.048,0,0,0,1.179-2.457c.46-1.327.825-3.039-.256-3.935a3.5,3.5,0,0,0-1.521-.6,7.909,7.909,0,0,0-3.331-.251,5.851,5.851,0,0,0-3.292,2.382,1.478,1.478,0,0,0-.909-1.83,2.9,2.9,0,0,0-2.211.2,5.841,5.841,0,0,0-2.47,2.1,4.786,4.786,0,0,0-4.272,2.618,3.467,3.467,0,0,0-2.716-.488,1.232,1.232,0,0,0-.821.513.557.557,0,0,0,.281.809" transform="translate(-65.076 -12.17)" fill="#263238"/>
        <path id="Path_364" data-name="Path 364" d="M206.945,44.887a3.5,3.5,0,0,0,5.353,4.081,3.229,3.229,0,0,0,3.624,2.082,5.066,5.066,0,0,0,2.593,4.451,3.928,3.928,0,0,0-.075,2.892,2.434,2.434,0,0,0,1.194,1.416,2.756,2.756,0,0,0,2.184-.155,3.885,3.885,0,0,0,2.227-2.161,2.25,2.25,0,0,0-1-2.737,8.464,8.464,0,0,0,2.121-3.032,2.723,2.723,0,0,0,.172-2.069,1.192,1.192,0,0,0-1.738-.579,3.116,3.116,0,0,0-3.309-4.543A2.588,2.588,0,0,0,216,42.622" transform="translate(-70.219 -14.264)" fill="#263238"/>
        <path id="Path_365" data-name="Path 365" d="M177.926,42.914a2.652,2.652,0,0,0-2.4-2.547,6.536,6.536,0,0,0-3.7.892,4.531,4.531,0,0,0-5.018-1.285c-1.71.678-2.807,2.322-4.217,3.5a9.338,9.338,0,0,0-2.133,1.984,1.912,1.912,0,0,0,.338,2.6,3.294,3.294,0,0,0-.947,5.716c.3.231.656.438.778.794a1.432,1.432,0,0,1-.093.922,33.507,33.507,0,0,0-1.581,4.225,3.891,3.891,0,0,0,1.272,4.057c.333.218.743.391.893.759a1.23,1.23,0,0,1-.009.769,13.861,13.861,0,0,1-1.068,2.339,3.569,3.569,0,0,0-.392,2.488,1.63,1.63,0,0,0,1.967,1.18,5.28,5.28,0,0,0,.528,4.911c1.053,1.356,4.533,1.969,6.595.716l.189-4.853c-.272-.854,1.055-5.4.5-6.33,0,0-1.455,3.157,1.82,2.63,1.065.293,3.116-2.837,3.257-3.933a2.932,2.932,0,0,0-1.5-2.749,4.972,4.972,0,0,0,1.28-6.249,2.659,2.659,0,0,0,.523-5.135,5.463,5.463,0,0,0,3.5-7.339" transform="translate(-53.866 -13.48)" fill="#263238"/>
        <path id="Path_366" data-name="Path 366" d="M163.435,45.762c-.011-.012-.164.09-.366.365a2.821,2.821,0,0,0,.269,3.553,3,3,0,0,0,2.882.786l-.267-.261a2.137,2.137,0,1,0,4.176.874l-.5.007a2.134,2.134,0,0,0,1.336,1.547,2.08,2.08,0,0,0,1.356.077,1.938,1.938,0,0,0,1.055-.817,2.172,2.172,0,0,0-.012-2.407l-.311.353a5.386,5.386,0,0,0,4.256.358,5.074,5.074,0,0,0,2.644-2.089,5.011,5.011,0,0,0,.755-2.073,1.911,1.911,0,0,0-.007-.789,6.517,6.517,0,0,1-1,2.7,4.862,4.862,0,0,1-2.521,1.866,5.014,5.014,0,0,1-3.895-.388l-.96-.536.649.887a1.7,1.7,0,0,1-.021,1.852,1.435,1.435,0,0,1-1.8.54A1.638,1.638,0,0,1,170.128,51l-.268-1.5-.226,1.507a1.735,1.735,0,0,1-2.118,1.346,1.779,1.779,0,0,1-1.15-2.034l.1-.37-.367.109a2.648,2.648,0,0,1-2.518-.625,2.5,2.5,0,0,1-.761-1.905,3.42,3.42,0,0,1,.615-1.764" transform="translate(-55.22 -15.369)" fill="#455a64"/>
        <path id="Path_367" data-name="Path 367" d="M213.721,37.191a1.416,1.416,0,0,1,.113.609.762.762,0,0,1-.343.573.794.794,0,0,1-.846,0l-.429-.3.209.483a2.1,2.1,0,0,1-.514,2.259,2,2,0,0,1-2.74-.145l-.251-.275-.147.343a3.681,3.681,0,0,1-6.117.994l-.156-.175-.18.151a6.341,6.341,0,0,1-3.043,1.393,6.883,6.883,0,0,1-2.678-.061,10.884,10.884,0,0,1-2.258-.885c-.015.019.152.18.5.425a5.9,5.9,0,0,0,1.682.751,6.833,6.833,0,0,0,2.814.174,6.6,6.6,0,0,0,3.291-1.431l-.335-.024a4.132,4.132,0,0,0,6.918-1.125l-.4.067a2.353,2.353,0,0,0,3.883-2.559l-.221.188a1.042,1.042,0,0,0,1.144-.054.927.927,0,0,0,.372-.758c-.017-.477-.273-.638-.275-.617" transform="translate(-66.014 -12.633)" fill="#455a64"/>
        <path id="Path_368" data-name="Path 368" d="M195.02,27.4c.021.039.221-.089.611-.112a1.925,1.925,0,0,1,1.454.589,2.484,2.484,0,0,1,.493,2.235,5.974,5.974,0,0,1-1.533,2.582l.365.349.009-.008c.247-.252.834-.032.994.319a1.69,1.69,0,0,1-.032,1.3,6,6,0,0,1-1.333,2.089,12.539,12.539,0,0,1-1.873,1.408c.011.029.24-.013.629-.176A5.55,5.55,0,0,0,196.3,37a5.934,5.934,0,0,0,1.522-2.186,2.113,2.113,0,0,0,.037-1.679,1.313,1.313,0,0,0-.739-.639,1.02,1.02,0,0,0-1.037.17l-.021.018.365.349a6.135,6.135,0,0,0,1.611-2.826,2.8,2.8,0,0,0-.7-2.582,2.036,2.036,0,0,0-1.728-.528c-.434.092-.6.289-.586.306" transform="translate(-65.958 -9.193)" fill="#455a64"/>
        <path id="Path_369" data-name="Path 369" d="M169.273,32.993a6.663,6.663,0,0,1,1.86-.45,3.822,3.822,0,0,1,3.717,2.437l.165.428.258-.381a2.206,2.206,0,0,1,4.021,1.2l.005.293.286-.062a3.033,3.033,0,0,1,2.463.576,2.934,2.934,0,0,1,1.062,1.743,4.54,4.54,0,0,1-.123,1.9c.02.011.14-.137.265-.463a3.085,3.085,0,0,0,.155-1.486,3.169,3.169,0,0,0-1.1-2.013,3.408,3.408,0,0,0-2.822-.727l.291.23a2.676,2.676,0,0,0-4.9-1.456l.423.047a4.208,4.208,0,0,0-1.951-2.139,3.978,3.978,0,0,0-2.235-.422,3.766,3.766,0,0,0-1.416.43c-.3.168-.436.3-.423.319" transform="translate(-57.499 -10.946)" fill="#455a64"/>
        <path id="Path_370" data-name="Path 370" d="M169.4,6.823a2.851,2.851,0,0,1,.971-.786,1.817,1.817,0,0,1,1.377-.045,1.884,1.884,0,0,1,1.156,1.316l.221.989.162-1A2.684,2.684,0,0,1,175.264,5.2a2.62,2.62,0,0,1,2.905,1.453l.1.228.229-.1a2.389,2.389,0,0,1,.962-.188,2.566,2.566,0,0,1,2.511,1.872,2.714,2.714,0,0,1-.9,2.712l-.6.458.751-.075a2.073,2.073,0,0,1,1.92.983,1.943,1.943,0,0,1,.132,1.712,2.765,2.765,0,0,1-1.008,1.224c.006.016.162-.012.414-.164a2.265,2.265,0,0,0,.763-2.946,2.425,2.425,0,0,0-2.262-1.233l.149.382a3.133,3.133,0,0,0,1.115-3.164,3.042,3.042,0,0,0-2.979-2.266,2.885,2.885,0,0,0-1.165.231l.33.129a3.007,3.007,0,0,0-5.726.78l.384-.015A2.2,2.2,0,0,0,171.855,5.7a2.014,2.014,0,0,0-1.576.142,1.949,1.949,0,0,0-.742.665c-.121.194-.149.314-.135.32" transform="translate(-57.542 -1.584)" fill="#455a64"/>
        <path id="Path_371" data-name="Path 371" d="M147,13.09a2.659,2.659,0,0,1,1.525-.448,1.944,1.944,0,0,1,1.537.825,2.076,2.076,0,0,1,.074,2.21l-.857,1.383,1.167-1.136a1.974,1.974,0,0,1,2.428-.143,1.923,1.923,0,0,1,.333,2.639l.414.263a2.182,2.182,0,0,1,2.62-1,2.158,2.158,0,0,1,1.122,2.8l.387-.079a.826.826,0,0,1-.006-1.075,1.07,1.07,0,0,1,1.094-.3,2.269,2.269,0,0,1,1.486,1.779l.381-.133a1.01,1.01,0,0,1,.243-1.073,1.237,1.237,0,0,1,.988-.4,2.389,2.389,0,0,1,1.634.866c.689.84.934,1.445.99,1.408a1.288,1.288,0,0,0-.155-.43,5.533,5.533,0,0,0-.66-1.126,2.593,2.593,0,0,0-1.794-1.045,1.581,1.581,0,0,0-1.272.47,1.386,1.386,0,0,0-.346,1.492l.381-.134a3.721,3.721,0,0,0-.542-1.249,2.125,2.125,0,0,0-1.23-.874,1.527,1.527,0,0,0-1.575.455,1.3,1.3,0,0,0,.052,1.735l.241.233.146-.312a2.567,2.567,0,0,0-4.63-2.217l.414.263a2.31,2.31,0,0,0-3.427-3.088l.31.247a2.4,2.4,0,0,0-.153-2.6,2.255,2.255,0,0,0-3.006-.5c-.24.168-.327.3-.316.309" transform="translate(-49.935 -4.217)" fill="#263238"/>
        <path id="Path_372" data-name="Path 372" d="M233.252,83.95c0-.031-.157-.015-.406-.112a1.415,1.415,0,0,1-.754-.821,1.8,1.8,0,0,1,.177-1.69,5.8,5.8,0,0,1,1.778-1.594l-.243-.341a3.035,3.035,0,0,1-3.193.077,2.742,2.742,0,0,1-1.163-3.295,2.984,2.984,0,0,1,.646-1.114,1.613,1.613,0,0,1,.972-.575c.279-.01.491.367.472.707a.823.823,0,0,1-.58.733,2.611,2.611,0,0,1-2.07-.268,3.714,3.714,0,0,1-1.407-1.3,3.768,3.768,0,0,1-.466-2.738c.143-.669.355-1,.314-1.024a2.088,2.088,0,0,0-.505.977,3.83,3.83,0,0,0,.351,2.97,4.016,4.016,0,0,0,1.513,1.486,3,3,0,0,0,2.441.333,1.533,1.533,0,0,0,.6-.412,1.18,1.18,0,0,0,.288-.733,1.357,1.357,0,0,0-.192-.767.927.927,0,0,0-.74-.456,1.354,1.354,0,0,0-.78.246,3.241,3.241,0,0,0-.58.479,3.452,3.452,0,0,0-.763,1.3,3.5,3.5,0,0,0,.017,2.238,3.015,3.015,0,0,0,1.388,1.63,3.445,3.445,0,0,0,3.68-.159l-.242-.34a5.924,5.924,0,0,0-1.831,1.766,2.054,2.054,0,0,0-.106,1.959,1.488,1.488,0,0,0,.936.845c.293.066.448,0,.444-.009" transform="translate(-76.997 -23.979)" fill="#263238"/>
        <path id="Path_373" data-name="Path 373" d="M192.16,11.947c-.009.017.094.1.3.226a5.912,5.912,0,0,0,.959.492,2.678,2.678,0,0,0,1.731.153,2.07,2.07,0,0,0,.948-.6,1.445,1.445,0,0,0,.369-1.24l-.261.215a1.857,1.857,0,0,0,2.3-.8,1.86,1.86,0,0,0-1-2.551l-.1.462a2.01,2.01,0,0,0,2.024-1.7,2.2,2.2,0,0,0-1.5-2.367,2.556,2.556,0,0,0-1.246-.153l.139.479A2.474,2.474,0,0,0,197.5.67a2.487,2.487,0,0,0-3.566.281l.329,0a2.709,2.709,0,0,0-2.707-.868A2.452,2.452,0,0,0,189.9,1.51a2.468,2.468,0,0,0-.188,1.385.947.947,0,0,0,.159.464,3.015,3.015,0,0,1,.244-1.747,2.221,2.221,0,0,1,1.51-1.205,2.367,2.367,0,0,1,2.306.8l.168.211.161-.216a2.061,2.061,0,0,1,2.9-.187,2,2,0,0,1-.556,3.084l-1.445.672,1.585-.193a2.057,2.057,0,0,1,1,.126,1.707,1.707,0,0,1,1.195,1.808,1.536,1.536,0,0,1-1.492,1.313l-2.045-.2,1.947.665a1.417,1.417,0,0,1,.774,1.9,1.464,1.464,0,0,1-1.769.658l-.339-.146.079.361a1.408,1.408,0,0,1-1.04,1.474,2.545,2.545,0,0,1-1.567-.065c-.857-.3-1.309-.566-1.331-.518" transform="translate(-64.433 0)" fill="#263238"/>
        <path id="Path_374" data-name="Path 374" d="M173.447,75.372c-.146-.082-5.978-2.453-6.408,3.7s5.836,5.316,5.859,5.141.549-8.841.549-8.841" transform="translate(-56.733 -25.427)" fill="#ffbe9d"/>
        <path id="Path_375" data-name="Path 375" d="M171.989,82.751c-.026-.022-.113.067-.3.138a1.076,1.076,0,0,1-.8-.04,2.658,2.658,0,0,1-1.06-2.466,3.547,3.547,0,0,1,.407-1.514,1.241,1.241,0,0,1,.864-.766.546.546,0,0,1,.612.338c.071.178.022.3.055.31.016.017.139-.094.107-.351a.682.682,0,0,0-.215-.4.809.809,0,0,0-.582-.2,1.51,1.51,0,0,0-1.187.876,3.648,3.648,0,0,0-.491,1.689,2.79,2.79,0,0,0,1.378,2.767,1.151,1.151,0,0,0,.992-.094c.2-.139.243-.274.223-.287" transform="translate(-57.54 -26.427)" fill="#eb996e"/>
        <path id="Path_376" data-name="Path 376" d="M200.776,90.421a2.128,2.128,0,0,1,3.414.679,2.011,2.011,0,0,1,.006,1.626,1.857,1.857,0,0,1-3.514-.428c-.145-.769-.389-1.679.3-2.05" transform="translate(-68.114 -30.516)" fill="#eb996e"/>
        <path id="Path_377" data-name="Path 377" d="M200.677,88.328c.231-.029.337,1.521,1.738,2.534s3.039.732,3.066.948c.028.1-.349.326-1.045.392a3.871,3.871,0,0,1-2.553-.7,3.37,3.37,0,0,1-1.358-2.131c-.1-.644.045-1.04.152-1.038" transform="translate(-68.104 -30.003)" fill="#263238"/>
        <path id="Path_378" data-name="Path 378" d="M163.814,118.023l4.194-.71,23.591,2.1,8.439,4,2.242,1.327S193.5,136.954,184.512,136.3s-24.524-13.484-24.524-13.484l-.071-4.192Z" transform="translate(-54.321 -39.849)" fill="#ffbe9d"/>
        <path id="Path_379" data-name="Path 379" d="M215.221,138.358l-19.313-11.141c-2.388-.8-13.528-4.58-13.528-4.58s-8.654,13.739-15.807,12.854c-3.872-.479-8.571-3.825-12.067-6.793a36.076,36.076,0,0,1-7.569-8.939l-.78-1.3c-3.387,0-13.92,2.544-17.648,3.471a4.712,4.712,0,0,0-2.311,1.363c-2.063,2.21-6.06,6.424-6.908,10.593-.81,3.979-4.12,16.719-4.12,16.719l94.946-2.906Z" transform="translate(-39.122 -40.239)" fill="#e8505b"/>
        <path id="Path_380" data-name="Path 380" d="M294.542,149.09c-1.447.693-13.413,4.734-13.95,5.343s-16.943-5.211-16.943-5.211L258.96,158.1l42.328-.922Z" transform="translate(-87.965 -50.644)" fill="#ffbe9d"/>
        <path id="Path_381" data-name="Path 381" d="M144.63,139.442c-.058.017-.255-.759-.841-1.892a15.555,15.555,0,0,0-3-3.94,35.915,35.915,0,0,0-3.867-3.162,13.676,13.676,0,0,1-1.649-1.272,11.515,11.515,0,0,1,1.789,1.072,27.372,27.372,0,0,1,3.967,3.115,13.907,13.907,0,0,1,2.974,4.08,8.75,8.75,0,0,1,.526,1.442,1.632,1.632,0,0,1,.1.556" transform="translate(-45.951 -43.879)" fill="#263238"/>
        <path id="Path_382" data-name="Path 382" d="M235.69,150.6a10.347,10.347,0,0,1-.12-1.972c-.022-1.22-.006-2.9.081-4.764s.232-3.539.368-4.751a10.459,10.459,0,0,1,.306-1.953,12.119,12.119,0,0,1-.063,1.973c-.075,1.323-.166,2.948-.267,4.746-.069,1.8-.131,3.426-.182,4.75a12.276,12.276,0,0,1-.123,1.97" transform="translate(-80.016 -46.592)" fill="#263238"/>
        <path id="Path_383" data-name="Path 383" d="M157.8,126.478c.009.008-.039.074-.14.193a3.309,3.309,0,0,1-.482.483,5.475,5.475,0,0,1-2.238,1.125,5.979,5.979,0,0,1-3.7-.235,5.8,5.8,0,0,1-1.849-1.232c-.557-.528-1.061-1.128-1.641-1.658a5.965,5.965,0,0,0-3.984-1.6,5.794,5.794,0,0,0-3.389,1.021,6.336,6.336,0,0,0-1.706,1.732c-.318.485-.446.786-.474.773-.011,0,.011-.083.065-.229a4.216,4.216,0,0,1,.3-.615,6.008,6.008,0,0,1,5.211-3,6.205,6.205,0,0,1,4.213,1.663c.6.552,1.1,1.155,1.641,1.669a5.558,5.558,0,0,0,1.738,1.183,5.846,5.846,0,0,0,3.527.292,5.748,5.748,0,0,0,2.211-.994c.471-.34.676-.6.705-.571" transform="translate(-46.942 -41.862)" fill="#fff"/>
        <path id="Path_384" data-name="Path 384" d="M205.673,141.574c-.021.013-.2-.361-.679-.979a8.375,8.375,0,0,0-2.6-2.161,8,8,0,0,0-5.191-.872,8.269,8.269,0,0,0-5.576,4,6.927,6.927,0,0,0-.948,3.924,4.143,4.143,0,0,0,.693,2.009,3.356,3.356,0,0,0,1.75,1.284,2.473,2.473,0,0,0,2.151-.34,3.242,3.242,0,0,0,1.284-1.909,3.591,3.591,0,0,0-.3-2.366,5.063,5.063,0,0,0-1.613-1.908,7.131,7.131,0,0,0-5.037-1.121,11.465,11.465,0,0,0-5.1,2.048c-3.16,2.118-5.646,5.339-9.155,7.507a11.929,11.929,0,0,1-5.747,1.832,12.31,12.31,0,0,1-5.759-1.1,9.838,9.838,0,0,1-4.293-3.675,6.723,6.723,0,0,1-.814-5.316,5.128,5.128,0,0,1,3.432-3.724,4.836,4.836,0,0,1,4.64,1.151,3.694,3.694,0,0,1,1.018,2.122,4.372,4.372,0,0,1-.367,2.236,5.8,5.8,0,0,1-2.966,2.934,7.043,7.043,0,0,1-3.791.377,11.6,11.6,0,0,1-3.232-1.065,29.148,29.148,0,0,1-4.535-2.983c-1.186-.9-2.13-1.56-2.792-1.976-.331-.209-.586-.363-.76-.463s-.258-.16-.258-.16.1.038.275.13.442.234.78.434c.676.4,1.636,1.046,2.835,1.927a29.829,29.829,0,0,0,4.538,2.918,11.5,11.5,0,0,0,3.181,1.022,6.839,6.839,0,0,0,3.661-.384,5.558,5.558,0,0,0,2.819-2.817,4.11,4.11,0,0,0,.337-2.1,3.411,3.411,0,0,0-.948-1.956A4.547,4.547,0,0,0,162.247,139a4.823,4.823,0,0,0-3.206,3.515,6.4,6.4,0,0,0,.788,5.061,9.52,9.52,0,0,0,4.154,3.541,11.988,11.988,0,0,0,5.6,1.066,11.587,11.587,0,0,0,5.586-1.783c3.438-2.118,5.928-5.335,9.145-7.493a11.786,11.786,0,0,1,5.254-2.1,7.448,7.448,0,0,1,5.261,1.191,5.365,5.365,0,0,1,1.708,2.032,3.89,3.89,0,0,1,.314,2.569,3.538,3.538,0,0,1-1.412,2.081,2.767,2.767,0,0,1-2.4.371,3.632,3.632,0,0,1-1.894-1.4,4.408,4.408,0,0,1-.732-2.145,7.163,7.163,0,0,1,1-4.068,8.462,8.462,0,0,1,5.754-4.073,8.1,8.1,0,0,1,5.288.943,8.211,8.211,0,0,1,2.591,2.236,5.9,5.9,0,0,1,.624,1.022" transform="translate(-50.655 -46.626)" fill="#fff"/>
        <path id="Path_385" data-name="Path 385" d="M248.844,142.035a1.734,1.734,0,0,1-.211.545,7.784,7.784,0,0,1-.848,1.349,8.624,8.624,0,0,1-1.7,1.649,11.455,11.455,0,0,1-2.546,1.389,10.353,10.353,0,0,1-5.19.627,8.8,8.8,0,0,1-1.552-.353,1.753,1.753,0,0,1-.537-.23c.018-.059.8.217,2.117.342a11,11,0,0,0,5.036-.7,10.446,10.446,0,0,0,4.187-2.872c.849-1.008,1.19-1.773,1.247-1.741" transform="translate(-80.253 -48.247)" fill="#fff"/>
        <path id="Path_386" data-name="Path 386" d="M258.131,148.058c-.015.026-.215-.1-.615-.21a3.377,3.377,0,0,0-1.719.043,7.085,7.085,0,0,0-2.271,1.241c-.8.595-1.653,1.277-2.511,2.04a38.757,38.757,0,0,0-4.087,4.223c-.968,1.156-1.511,1.918-1.557,1.886a2.487,2.487,0,0,1,.324-.575c.232-.355.579-.862,1.043-1.463a31.147,31.147,0,0,1,4.049-4.329,31.57,31.57,0,0,1,2.552-2.039,6.929,6.929,0,0,1,2.4-1.22,3.251,3.251,0,0,1,1.819.065,1.246,1.246,0,0,1,.575.337" transform="translate(-83.348 -50.123)" fill="#fff"/>
        <path id="Path_387" data-name="Path 387" d="M220.908,128.749a2.81,2.81,0,0,1-.937.712,7.761,7.761,0,0,1-5.535.791,2.8,2.8,0,0,1-1.1-.421,10.123,10.123,0,0,0,7.57-1.082" transform="translate(-72.468 -43.732)" fill="#fff"/>
        <path id="Path_388" data-name="Path 388" d="M132.838,156.258a25.774,25.774,0,0,0-.116-2.911,13.081,13.081,0,0,0-2.658-6.372,13.816,13.816,0,0,0-2.763-2.659,11.738,11.738,0,0,0-2.769-1.462,22.1,22.1,0,0,0-2.822-.711,3.013,3.013,0,0,1,.79.024,10.187,10.187,0,0,1,2.111.457,11.217,11.217,0,0,1,2.872,1.433,13.423,13.423,0,0,1,2.851,2.7,12.647,12.647,0,0,1,2.63,6.558,11.189,11.189,0,0,1,.009,2.159,3.031,3.031,0,0,1-.134.78" transform="translate(-41.343 -48.279)" fill="#fff"/>
        <g id="Group_340" data-name="Group 340" transform="translate(76.147 102.614)" opacity="0.3">
          <g id="Group_339" data-name="Group 339">
            <g id="Group_338" data-name="Group 338" clip-path="url(#clip-path-4)">
              <path id="Path_389" data-name="Path 389" d="M137.386,157.437a3.57,3.57,0,0,0-3.661-.382c-.5.241-.932.6-1.439.814a1.543,1.543,0,0,1-1.569-.092c-.372-.311-.475-.837-.764-1.226a2.514,2.514,0,0,0-2.471-.683,11.549,11.549,0,0,1-2.656.431,14.126,14.126,0,0,1-2.558-.737,5.308,5.308,0,0,0-5.349,1.751l-1.6,4.729,23.349-1.153a3.568,3.568,0,0,0-1.282-3.451" transform="translate(-115.319 -155.401)"/>
            </g>
          </g>
        </g>
        <path id="Path_390" data-name="Path 390" d="M155.617,160.934c-.059.024-.264-.615-.9-1.447a6.063,6.063,0,0,0-7.277-1.933c-.968.405-1.463.858-1.5.808-.014-.016.094-.144.324-.341a5.119,5.119,0,0,1,1.079-.689,5.97,5.97,0,0,1,7.574,2.012,5.135,5.135,0,0,1,.594,1.134,1.117,1.117,0,0,1,.112.456" transform="translate(-49.571 -53.238)" fill="#fff"/>
        <g id="Group_343" data-name="Group 343" transform="translate(143.362 98.916)" opacity="0.3">
          <g id="Group_342" data-name="Group 342">
            <g id="Group_341" data-name="Group 341" clip-path="url(#clip-path-5)">
              <path id="Path_391" data-name="Path 391" d="M235.092,156.192a9.843,9.843,0,0,1-4.3-2.041A4.016,4.016,0,0,1,229.6,149.8a13.789,13.789,0,0,1-12.485,8.277l22.532-.37a19.448,19.448,0,0,0-4.552-1.515" transform="translate(-217.112 -149.801)"/>
            </g>
          </g>
        </g>
        <path id="Path_392" data-name="Path 392" d="M197.453,71.142a14.9,14.9,0,0,0-.307-1.649,6.819,6.819,0,0,0-2.56-3.645,6.7,6.7,0,0,0-6.358-.827,6.709,6.709,0,0,0-3.058,2.385,6.654,6.654,0,0,0,.134,7.888,6.7,6.7,0,0,0,3.138,2.28,6.7,6.7,0,0,0,6.326-1.044A6.822,6.822,0,0,0,197.2,72.8a14.752,14.752,0,0,0,.251-1.659,5.293,5.293,0,0,1-.12,1.689,6.809,6.809,0,0,1-2.413,3.89,6.887,6.887,0,0,1-2.9,1.376,6.991,6.991,0,0,1-3.679-.223,7,7,0,0,1-3.3-2.376,6.961,6.961,0,0,1-.141-8.287,7,7,0,0,1,3.219-2.487,6.989,6.989,0,0,1,3.669-.348,6.9,6.9,0,0,1,5.492,5.081,5.283,5.283,0,0,1,.178,1.684" transform="translate(-62.365 -21.834)" fill="#455a64"/>
        <path id="Path_393" data-name="Path 393" d="M223.442,70.7a14.936,14.936,0,0,0-.307-1.649,6.818,6.818,0,0,0-2.56-3.644,6.7,6.7,0,0,0-6.358-.827,6.709,6.709,0,0,0-3.058,2.385,6.654,6.654,0,0,0,.134,7.888,6.7,6.7,0,0,0,3.138,2.28,6.7,6.7,0,0,0,6.326-1.044,6.819,6.819,0,0,0,2.433-3.729,14.758,14.758,0,0,0,.251-1.659,5.269,5.269,0,0,1-.12,1.689,6.809,6.809,0,0,1-2.413,3.89,6.887,6.887,0,0,1-2.9,1.376,6.991,6.991,0,0,1-3.679-.223,7,7,0,0,1-3.3-2.376,6.961,6.961,0,0,1-.141-8.287,7,7,0,0,1,3.219-2.487,6.989,6.989,0,0,1,3.669-.348,6.888,6.888,0,0,1,2.947,1.276,6.814,6.814,0,0,1,2.545,3.805,5.283,5.283,0,0,1,.178,1.684" transform="translate(-71.193 -21.683)" fill="#455a64"/>
        <path id="Path_394" data-name="Path 394" d="M181.376,72.966a13.627,13.627,0,0,1-5.135,1.645,48.793,48.793,0,0,1,5.135-1.645" transform="translate(-59.866 -24.781)" fill="#455a64"/>
        <path id="Path_395" data-name="Path 395" d="M208.63,71.468a6.869,6.869,0,0,0-4.44.534,3.841,3.841,0,0,1,4.44-.534" transform="translate(-69.359 -24.114)" fill="#455a64"/>
        <path id="Path_396" data-name="Path 396" d="M188.837,79.421a2.324,2.324,0,0,1-1.09-.4,5.309,5.309,0,0,1-2.665-4.715,2.323,2.323,0,0,1,.218-1.141c.054.01-.016.444.026,1.136a5.786,5.786,0,0,0,2.551,4.514c.571.393.98.557.96.608" transform="translate(-62.869 -24.852)" fill="#fff"/>
        <path id="Path_397" data-name="Path 397" d="M214.663,78.853a2.156,2.156,0,0,1-1.018-.4,5.177,5.177,0,0,1-2.521-4.443,2.147,2.147,0,0,1,.183-1.077,8.76,8.76,0,0,1,.06,1.066,5.735,5.735,0,0,0,2.411,4.25,8.9,8.9,0,0,1,.885.6" transform="translate(-71.715 -24.776)" fill="#fff"/>
      </g>
    </g>
    <g id="Group_347" data-name="Group 347">
      <g id="Group_346" data-name="Group 346" clip-path="url(#clip-path)">
        <path id="Path_398" data-name="Path 398" d="M74.281,164.487S72.509,270.66,87.174,342.078L269.9,341.5,222.071,163.638Z" transform="translate(-25.209 -55.585)" fill="#e0e0e0"/>
        <path id="Path_399" data-name="Path 399" d="M74.261,164.414l147.788-.99h.108l.028.1,47.86,177.859.058.215h-.223l-14.526.046-168.2.506h-.125l-.022-.12q-.915-4.923-1.811-9.742c-.287-1.608-.619-3.2-.866-4.8l-.729-4.765q-.717-4.738-1.418-9.368-.587-4.644-1.159-9.175l-.569-4.5c-.181-1.492-.318-2.979-.477-4.453q-.461-4.424-.909-8.728c-.324-2.866-.518-5.7-.771-8.494s-.474-5.54-.706-8.246c-1.68-21.662-2.453-40.611-2.914-56.223-.438-15.614-.522-27.9-.525-36.278-.005-4.189.024-7.4.048-9.568.016-1.082.028-1.9.036-2.457.015-.52.021-.751.023-.827,0,.321,0,4.511-.014,12.852.033,8.377.145,20.661.608,36.273.487,15.61,1.283,34.554,2.983,56.209q.352,4.057.714,8.243c.255,2.789.452,5.625.778,8.49q.452,4.3.917,8.725c.16,1.473.3,2.96.48,4.45s.38,2.99.571,4.5q.575,4.527,1.165,9.17.7,4.626,1.424,9.362.364,2.367.732,4.762c.247,1.6.58,3.186.868,4.793q.9,4.815,1.814,9.733l-.147-.12,168.2-.549,14.526-.046-.165.217L221.914,163.6l.137.1-147.79.709" transform="translate(-25.189 -55.512)" fill="#263238"/>
        <path id="Path_400" data-name="Path 400" d="M74.315,163.584s-.153,13.995,2.217,38.905c1.568,16.485,1.391,38.137,5.763,65.726,9.236,58.285,14.1,67.2,14.1,67.2l178.247-1.177L227.183,160.979Z" transform="translate(-25.243 -54.682)" fill="#ebebeb"/>
        <path id="Path_401" data-name="Path 401" d="M74.309,163.509l152.866-2.748.111,0,.03.108c13.591,49.585,29.908,109.118,47.486,173.247l.059.216h-.224l-9.713.064L96.39,335.486h-.1l-.036-.079a36.824,36.824,0,0,1-1.639-4.6c-.474-1.542-.893-3.089-1.3-4.629s-.794-3.078-1.153-4.612c-.376-1.531-.718-3.06-1.058-4.58q-2.022-9.125-3.638-17.886c-2.184-11.668-4.019-22.779-5.646-33.239-.8-5.233-1.436-10.32-1.951-15.239s-.936-9.671-1.259-14.242c-.664-9.141-1.025-17.554-1.5-25.143-.224-3.8-.528-7.38-.841-10.753s-.568-6.538-.788-9.485c-.44-5.894-.724-10.915-.9-14.988s-.248-7.2-.275-9.307c-.006-1.051-.01-1.85-.013-2.388s.013-.808.013-.808c0,.157.017,1.123.047,3.195.042,2.106.131,5.232.32,9.3s.488,9.091.942,14.982c.227,2.946.49,6.11.808,9.482s.631,6.96.861,10.756c.488,7.591.861,16,1.537,25.139q.493,6.853,1.276,14.233c.52,4.916,1.161,10,1.965,15.227,1.638,10.454,3.482,21.564,5.673,33.225q1.624,8.749,3.648,17.874c.341,1.519.683,3.046,1.061,4.575.359,1.533.751,3.066,1.154,4.606s.828,3.082,1.3,4.618a37,37,0,0,0,1.618,4.541l-.132-.078,168.534-1.135,9.713-.064-.164.217L227.039,160.942l.141.106-152.87,2.462" transform="translate(-25.237 -54.607)" fill="#263238"/>
        <path id="Path_402" data-name="Path 402" d="M243.373,173.444,74.524,176.321c-.713,45.791,15.41,117.262,27.231,154.862l177.2-1.857c-18.137-48.177-39-102.944-35.581-155.883" transform="translate(-25.307 -58.916)" fill="#f5f5f5"/>
        <path id="Path_403" data-name="Path 403" d="M243.3,173.444c0,.152-.031,1.035-.088,2.938-.032.975-.071,2.184-.119,3.621-.026,1.438-.162,3.111-.085,4.993.087,3.768.055,8.422.522,13.873l.283,4.244c.142,1.461.326,2.969.5,4.528s.353,3.164.538,4.82.491,3.342.741,5.084q.4,2.611.819,5.36c.315,1.827.693,3.69,1.049,5.6.379,1.908.7,3.875,1.15,5.86l1.364,6.087c.237,1.035.457,2.085.714,3.137s.537,2.11.81,3.181l1.67,6.544q.932,3.311,1.9,6.74c.327,1.142.635,2.3.985,3.455l1.066,3.494c5.644,18.818,13.348,39.625,21.906,62.268l.075.2-.211,0-171.319,1.82-5.879.062h-.128l-.038-.122c-4.272-13.767-7.9-27.487-11.126-40.995s-6.011-26.823-8.375-39.846-4.295-25.762-5.673-38.138A291.542,291.542,0,0,1,74.3,176.319l0-.145.145,0L243.3,173.444,74.451,176.471l.147-.147a291.623,291.623,0,0,0,2.06,35.9c1.383,12.366,3.321,25.1,5.683,38.113s5.162,26.321,8.381,39.826,6.854,27.216,11.122,40.971l-.166-.12,5.879-.061,171.319-1.771-.136.2c-8.543-22.648-16.233-43.469-21.86-62.3q-.537-1.763-1.064-3.5c-.349-1.157-.656-2.316-.982-3.458l-1.891-6.746-1.663-6.55q-.407-1.608-.806-3.183c-.256-1.053-.475-2.1-.71-3.14l-1.356-6.093c-.447-1.988-.767-3.955-1.142-5.866-.354-1.915-.729-3.78-1.041-5.608q-.416-2.753-.81-5.366c-.247-1.744-.555-3.432-.732-5.089l-.529-4.824c-.166-1.56-.347-3.068-.485-4.531q-.142-2.2-.274-4.247c-.453-5.456-.407-10.113-.48-13.882-.071-1.889.073-3.542.109-4.977.058-1.434.106-2.641.146-3.615l.127-2.962" transform="translate(-25.231 -58.916)" fill="#263238"/>
        <path id="Path_404" data-name="Path 404" d="M243.595,160.555l-169.3,2.885A396.256,396.256,0,0,0,92.908,288.9l48.847,30.253,141.813-2.416c-18.138-48.177-43.4-103.242-39.974-156.18" transform="translate(-25.22 -54.538)" fill="#fafafa"/>
        <path id="Path_405" data-name="Path 405" d="M243.522,160.555c-.006.154-.042,1.046-.12,2.968-.045.984-.107,2.209-.109,3.657s-.071,3.129-.013,5.029a193.358,193.358,0,0,0,3.354,32.757,343.083,343.083,0,0,0,13.479,49.422c3.216,9.369,6.9,19.25,10.9,29.625s8.311,21.248,12.625,32.67l.074.2-.21,0-141.813,2.44h-.05l-.043-.026-21.156-13.1L92.745,289.043l-.054-.034-.019-.061a410.287,410.287,0,0,1-14.794-65.087,391.479,391.479,0,0,1-3.809-60.425l0-.145.145,0,169.305-2.735-169.3,3.035.147-.147A391.85,391.85,0,0,0,78.2,223.816,410.478,410.478,0,0,0,93,288.846l-.073-.094,27.692,17.15L141.773,319l-.093-.025,141.813-2.393-.136.2c-4.305-11.421-8.613-22.295-12.6-32.676s-7.665-20.268-10.873-29.644A341.621,341.621,0,0,1,246.463,205a191.468,191.468,0,0,1-3.275-32.787c-.051-1.9.02-3.582.036-5.032s.079-2.664.133-3.642c.107-1.931.156-2.827.165-2.981" transform="translate(-25.147 -54.538)" fill="#263238"/>
        <path id="Path_406" data-name="Path 406" d="M102.724,352.519l43.018-4.623,5.688,34.892Z" transform="translate(-34.894 -118.175)" fill="#e0e0e0"/>
        <path id="Path_407" data-name="Path 407" d="M151.357,382.692a.776.776,0,0,1-.045-.174c-.026-.134-.059-.3-.1-.515-.085-.478-.2-1.144-.356-1.993-.3-1.76-.727-4.272-1.257-7.386-1.039-6.288-2.479-15-4.1-24.8l.188.143-4,.431-27.695,2.925-8.4.847-2.285.213-.595.047a.1.1,0,1,1,0-.035l.592-.081,2.277-.277,8.385-.956,27.684-3.026,4-.429.162-.017.026.16c1.576,9.8,2.977,18.522,3.988,24.815.486,3.121.879,5.638,1.154,7.4.125.853.225,1.523.3,2,.028.214.051.385.069.52a.744.744,0,0,1,.013.179" transform="translate(-34.821 -118.079)" fill="#263238"/>
        <path id="Path_408" data-name="Path 408" d="M230.155,232.87c0,.1-22.813.561-50.952,1.04s-50.96.792-50.962.7,22.809-.561,50.957-1.04,50.956-.792,50.957-.7" transform="translate(-43.562 -79.097)" fill="#263238"/>
        <path id="Path_409" data-name="Path 409" d="M234.461,256.919c0,.1-22.813.561-50.952,1.04s-50.96.792-50.962.7,22.809-.561,50.957-1.04,50.956-.792,50.958-.7" transform="translate(-45.024 -87.266)" fill="#263238"/>
        <path id="Path_410" data-name="Path 410" d="M244.126,280.877c0,.1-22.813.561-50.952,1.04s-50.96.792-50.962.7,22.809-.561,50.957-1.04,50.957-.792,50.958-.7" transform="translate(-48.307 -95.404)" fill="#263238"/>
        <path id="Path_411" data-name="Path 411" d="M254.265,308.044c0,.1-22.813.561-50.952,1.04s-50.96.792-50.962.7,22.809-.561,50.957-1.04,50.957-.792,50.958-.7" transform="translate(-51.751 -104.632)" fill="#263238"/>
        <path id="Path_412" data-name="Path 412" d="M265.687,333.306c0,.1-22.813.561-50.952,1.04s-50.96.792-50.962.7,22.809-.561,50.957-1.04,50.956-.792,50.958-.7" transform="translate(-55.631 -113.213)" fill="#263238"/>
        <path id="Path_413" data-name="Path 413" d="M84.388,162.675s2.015-2.873,3.123-3.494a3.318,3.318,0,0,1,3.354-.057l.7.59s3.5-1.694,5.238-.519c0,0,3.325-1.691,4.99.087,0,0,2.55-1.764,3.693-.322a6.048,6.048,0,0,1,.6,5.237c-.494,1.3-1.365,5.7-2.137,5.8,0,0-2.065.281-2.374-.831s-.442-1.649-.442-1.649-.677,3.986-1.626,4.209-2.771.172-2.883-1.565c0,0-.847,1.339-1.721.981s-1.962-.96-1.9-2.038.046-2.153.046-2.153-.429,1.58-1.221,1.263-1.577-.221-2.054-1.538-1.681-3.9-1.681-3.9Z" transform="translate(-28.665 -53.804)" fill="#ffbe9d"/>
        <path id="Path_414" data-name="Path 414" d="M96.6,167.481c-.05-.024.144-.434.306-1.13a6.165,6.165,0,0,0-1.128-5.24c-.434-.568-.779-.861-.744-.9a2.477,2.477,0,0,1,.931.749,5.631,5.631,0,0,1,1.175,5.459,2.463,2.463,0,0,1-.54,1.066" transform="translate(-32.282 -54.419)" fill="#eb996e"/>
        <path id="Path_415" data-name="Path 415" d="M103.3,159.631a5.448,5.448,0,0,1,.5,1.547,15.455,15.455,0,0,1-.3,7.784,5.424,5.424,0,0,1-.616,1.5,27.954,27.954,0,0,0,.92-5.391,28,28,0,0,0-.505-5.445" transform="translate(-34.946 -54.224)" fill="#eb996e"/>
        <path id="Path_416" data-name="Path 416" d="M110.5,159.812a16.649,16.649,0,0,1-.709,8.29c-.1-.026.349-1.843.538-4.13s.067-4.152.171-4.161" transform="translate(-37.289 -54.286)" fill="#eb996e"/>
        <path id="Path_417" data-name="Path 417" d="M129.411,160.157a1.324,1.324,0,0,0-.913-.7,2.885,2.885,0,0,0-2.551.763,8.5,8.5,0,0,0-1.621,2.233l4.832-.042c-.071-.767.554-1.549.252-2.257" transform="translate(-42.232 -54.143)" fill="#ffbe9d"/>
        <path id="Path_418" data-name="Path 418" d="M409.486,400.938c-.053-.046.786-.947,1.852-2.6a23.143,23.143,0,0,0,1.637-3.038,23.092,23.092,0,0,0,1.964-8.175,23.248,23.248,0,0,0-.078-3.451c-.2-1.96-.537-3.143-.468-3.16a4.085,4.085,0,0,1,.263.821,8.659,8.659,0,0,1,.229.987c.07.388.172.829.217,1.325a20.948,20.948,0,0,1,.153,3.492,21.887,21.887,0,0,1-1.992,8.29,20.928,20.928,0,0,1-1.723,3.042c-.265.421-.556.767-.8,1.082a8.541,8.541,0,0,1-.652.775,4.1,4.1,0,0,1-.608.613" transform="translate(-139.095 -129.254)" fill="#263238"/>
        <path id="Path_419" data-name="Path 419" d="M394.105,408.3c-.042-.046.781-.794,1.954-2.14a29.629,29.629,0,0,0,6.4-12.242c.436-1.732.58-2.834.642-2.826a3.449,3.449,0,0,1-.049.781,19.548,19.548,0,0,1-.356,2.1,26.711,26.711,0,0,1-6.455,12.348,19.322,19.322,0,0,1-1.522,1.492,3.382,3.382,0,0,1-.613.486" transform="translate(-133.871 -132.848)" fill="#263238"/>
      </g>
    </g>
    <g id="Group_349" data-name="Group 349">
      <g id="Group_348" data-name="Group 348" clip-path="url(#clip-path)">
        <path id="Path_420" data-name="Path 420" d="M289.529,432.835c0,.1-64.818.322-144.757.507C64.805,433.527,0,433.6,0,433.505s64.8-.322,144.771-.507c79.939-.186,144.758-.259,144.758-.164" transform="translate(0 -147.013)" fill="#263238"/>
      </g>
    </g>
    <g id="Group_354" data-name="Group 354">
      <g id="Group_353" data-name="Group 353" clip-path="url(#clip-path)">
        <path id="Path_421" data-name="Path 421" d="M350.662,210.385A24.544,24.544,0,1,1,325.7,186.262a24.544,24.544,0,0,1,24.959,24.123" transform="translate(-102.441 -63.269)" fill="#e8505b"/>
        <path id="Path_422" data-name="Path 422" d="M337.845,209.65l.291,17.073c.036,2.122,3.337,2.129,3.3,0l-.291-17.073c-.036-2.122-3.338-2.129-3.3,0" transform="translate(-114.761 -70.673)" fill="#fff"/>
        <path id="Path_423" data-name="Path 423" d="M325.913,224.275l18.268-.311c2.122-.036,2.129-3.338,0-3.3l-18.268.311c-2.122.036-2.129,3.338,0,3.3" transform="translate(-110.166 -74.956)" fill="#fff"/>
        <g id="Group_352" data-name="Group 352" transform="translate(214.381 122.874)" opacity="0.3">
          <g id="Group_351" data-name="Group 351">
            <g id="Group_350" data-name="Group 350" clip-path="url(#clip-path-9)">
              <path id="Path_424" data-name="Path 424" d="M338.522,186.57a23.2,23.2,0,0,0-13.858,1.455,31.285,31.285,0,0,0,3.212,4.554c1.032,1.282,2.578,2.608,4.131,2.063a3.891,3.891,0,0,1,1.28-.434c.7.011,1.17.7,1.558,1.28a15.285,15.285,0,0,0,3.895,4.011c.825.584,2.074,1.04,2.742.281a2.148,2.148,0,0,0,.376-1.422c.046-3.753-1.641-8.439-3.335-11.789" transform="translate(-324.664 -186.084)"/>
            </g>
          </g>
        </g>
        <path id="Path_425" data-name="Path 425" d="M312.846,148.278l3.931-1.191a10.71,10.71,0,0,1,9.293,1.763,33.792,33.792,0,0,1,5.2,4.461l3.389,4.567a3.918,3.918,0,0,1,.651,3.487,1.136,1.136,0,0,1-.385.631l-1.2,1.745s.352,2.657.371,4.321c.018,1.585-1.626,4.561-1.626,4.561l3.207,8.758a2.176,2.176,0,0,1-.521,2.355.92.92,0,0,1-1.319.071c-1.264-1.02-4.592-8.165-4.592-8.165l-1.331-1.529-1.828-.458s.325,2.669-.858,3.162L320.2,172.49l-3.893-6.582s-.106-9.036-1.078-11.528-2.384-6.1-2.384-6.1" transform="translate(-106.269 -49.831)" fill="#ffbe9d"/>
        <path id="Path_426" data-name="Path 426" d="M339.033,175.53a14.5,14.5,0,0,1,2.341,6.923c-.1.016-.4-1.6-1.053-3.5s-1.379-3.374-1.288-3.422" transform="translate(-115.162 -59.625)" fill="#eb996e"/>
        <path id="Path_427" data-name="Path 427" d="M343.431,169.389a4.044,4.044,0,0,1,.687,1.915,5.675,5.675,0,0,1,.2,2.021,6.575,6.575,0,0,1-.54-1.951,12.6,12.6,0,0,1-.351-1.985" transform="translate(-116.654 -57.538)" fill="#eb996e"/>
        <path id="Path_428" data-name="Path 428" d="M334.362,187.41a17.976,17.976,0,0,1-1.1-1.8c-.66-1.118-1.6-2.646-2.688-4.3-.544-.828-1.075-1.609-1.564-2.313a7.023,7.023,0,0,0-1.482-1.665,3.455,3.455,0,0,0-1.9-.686,1.059,1.059,0,0,1,.572-.061,3.075,3.075,0,0,1,1.472.549,6.725,6.725,0,0,1,1.6,1.679c.506.7,1.047,1.476,1.593,2.308,1.094,1.661,2,3.216,2.614,4.37a9.951,9.951,0,0,1,.883,1.918" transform="translate(-110.611 -59.982)" fill="#eb996e"/>
        <path id="Path_429" data-name="Path 429" d="M327.416,177.865c.056-.006.11.522.374,1.319a7.427,7.427,0,0,0,1.653,2.775,9.571,9.571,0,0,1,1.257,1.364,2.726,2.726,0,0,1,.459,1.483,3.012,3.012,0,0,1-.2,1.383c-.061-.007.032-.538-.042-1.366a2.63,2.63,0,0,0-.477-1.319,11.178,11.178,0,0,0-1.245-1.309,6.722,6.722,0,0,1-1.638-2.944,3.151,3.151,0,0,1-.14-1.387" transform="translate(-111.209 -60.418)" fill="#eb996e"/>
        <path id="Path_430" data-name="Path 430" d="M316.972,160.147c-.1-.007-.019-1.574-.293-3.474-.248-1.9-.754-3.405-.613-3.424a3.847,3.847,0,0,1,.4.943,13.8,13.8,0,0,1,.558,2.435,8.8,8.8,0,0,1-.048,3.521" transform="translate(-107.355 -52.056)" fill="#eb996e"/>
      </g>
    </g>
  </g>
</svg>
